<svg width="24" height="24" viewBox="0 0 24 24" xmlns="http://www.w3.org/2000/svg">
    <path d="M19.519 20.025H4.422c-.223.005.208.065 0 0-.045-.014-.11-.04-.159-.044-.114-.01.199.119.03.01a1.578 1.578 0 0 1-.163-.1c.005-.01.173.16.005-.01-.03-.029-.06-.059-.085-.093.09.118.104.133.04.044-.005-.01-.099-.163-.094-.168.035-.02.06.228.02.024a1.475 1.475 0 0 1-.04-.158c.005.044.01.09.02.129-.005-.045-.005-.09-.005-.134V4.433c0-.164.025.069-.015.064 0 0 .055-.258.07-.253.004 0-.11.208.01.005.118-.203 0 0-.01-.01-.005-.005.123-.129.133-.138.144-.154-.183.099 0 0 .035-.02.074-.045.11-.065.177-.114-.209.05 0 0 .014-.005.187-.054.192-.05-.153.02-.173.02-.064.015h13.279c.604 0 1.209-.01 1.813 0h.07c.222-.005-.209-.064 0 0 .014.005.188.045.188.055 0 .005-.208-.11-.005.01.203.119 0 0 .01-.01.004-.005.104.099.113.109.174.154-.059-.134.025.025.005.01.1.163.094.168-.015.005-.074-.223-.01.005l.015.065c.02.109.02.084-.005-.065.005 0 .005.134.005.134v8.602c0 2.125.01 4.25 0 6.376v.124c.005.223.065-.208 0 0-.005.015-.044.189-.054.189-.005 0 .109-.209-.01-.005-.01.014-.065.109-.07.109-.01-.005.159-.174-.01-.005-.163.163 0 0 .006.01a1.02 1.02 0 0 1-.164.099c-.178.114.208-.05 0 0a1.855 1.855 0 0 1-.193.05c.045-.006.09-.01.129-.02-.035-.006-.08 0-.124 0-.52.01-1.015.445-.99.99.024.526.435 1.006.99.991A2.52 2.52 0 0 0 22 19.515c.005-.203 0-.411 0-.614V6.657c0-.713.01-1.427 0-2.14-.014-1.145-.797-2.22-1.951-2.448-.312-.064-.61-.06-.926-.06H4.595c-.871 0-1.634.362-2.144 1.07-.347.481-.446 1.046-.446 1.626v14.573c0 .505.064.99.307 1.446.44.832 1.337 1.283 2.258 1.283 2.25.005 4.493 0 6.742 0h8.207c.52 0 1.015-.456.99-.99-.024-.54-.435-.992-.99-.992z" fill="#54575A" fill-rule="nonzero"/>
</svg>
